<?xml version="1.0" encoding="UTF-8"?>
<svg width="752pt" height="752pt" version="1.1" viewBox="0 0 752 752" xmlns="http://www.w3.org/2000/svg">
 <g>
  <path d="m584.38 471.81c6.5352 0.60156 12.324-4.2148 12.926-10.754 0.60156-6.5352-4.2109-12.324-10.75-12.926l-31.492-5.8242c-6.4336-1.2031-12.625 3.0352-13.828 9.4688-1.2031 6.4336 3.0352 12.625 9.4727 13.828l31.539 5.8711v0.003906c0.69922 0.17188 1.4102 0.28516 2.1328 0.33203z"/>
  <path d="m531.05 520.73c3.6602 4.8047 10.344 6.0898 15.52 2.9766 5.1758-3.1094 7.1836-9.6133 4.6562-15.098l-15.012-24.77c-3.3867-5.5977-10.672-7.3906-16.27-4-5.5977 3.3867-7.3867 10.668-4 16.266z"/>
  <path d="m542.84 423.36c2.6055-0.003906 5.1367-0.86719 7.1992-2.4609l22.969-17.711v-0.003906c5.2305-3.9883 6.2383-11.461 2.25-16.691-3.9883-5.2305-11.465-6.2383-16.695-2.25l-22.969 17.711c-4.1836 3.0508-5.9023 8.4609-4.2422 13.367 1.6602 4.9023 6.3125 8.1602 11.488 8.0391z"/>
  <path d="m526.55 334.38c-3.543-5.2656-8.4531-9.457-14.211-12.125-9.3945-4.7891-17.363-11.977-23.09-20.832-5.7305-8.8555-9.0195-19.07-9.5391-29.605-0.25391-6.3438-0.87109-12.668-1.8477-18.941-8.2383-50.91-40.301-111.29-145.39-111.29h-1.9414c-93.961 0-167.13 62.371-174.23 148.66-2.9375 34.23 5.0703 68.508 22.871 97.891 29.176 46.758 32.652 105.11 9.2344 155-2.2266 4.6133-1.2305 10.137 2.4648 13.688 38.902 34.129 88.762 53.168 140.51 53.656 15.422-0.015625 30.797-1.7305 45.844-5.1172 5.4961-1.1211 9.4492-5.9453 9.4688-11.555v-48.637c3.4102 0.50391 6.8828 0.91406 10.418 1.2305h0.003906c20.074 1.8398 40.309 0.94922 60.145-2.6523 11.77-2.2891 21.988-9.5352 28.043-19.887 6.0586-10.352 7.3633-22.809 3.5898-34.195-0.11719-3.8555 0.28125-7.7109 1.1836-11.461l1.4688-5.8711c1.3672-5.4062 0.42187-11.137-2.6055-15.816-2.957-4.5625-7.6719-7.6992-13.023-8.668-14.445-2.5586-24.199-8.7148-28.414-17.809 15.688 0.14844 31.309-2.1016 46.316-6.6758 5-1.7031 8.2656-6.5156 8.0039-11.793l-1.375-27.848v0.003906c8.7617-3.2969 16.629-8.6016 22.969-15.488 4.1055-4.5508 6.625-10.309 7.1875-16.41 0.5625-6.1016-0.85938-12.223-4.0586-17.449zm-20.793 18.23c-5.6914 5.7539-12.93 9.7344-20.836 11.461-5.2422 1.5469-8.7461 6.4766-8.4766 11.934l1.3242 27.23c-10.879 2.3945-22.02 3.3945-33.148 2.9844-6.8242-0.26172-13.352 2.793-17.523 8.1953-4.25 5.5391-5.543 12.797-3.457 19.461 3.3633 10.844 13.543 29.598 43.996 36.418l-0.51953 2.0352-0.003906 0.003906c-1.8594 7.4297-2.2422 15.152-1.1367 22.73 0.10938 0.5 0.25391 0.98828 0.42578 1.4688 1.8086 5 1.3242 10.543-1.3242 15.156-2.5938 4.6289-7.1328 7.8438-12.359 8.7617-17.742 3.2227-35.844 4.0195-53.801 2.3672-17.832-1.3281-35.195-6.3281-51.004-14.684-10.023-4.9219-18.688-12.223-25.242-21.262-3.5703-5.4805-10.906-7.0273-16.387-3.457-5.4766 3.5703-7.0273 10.906-3.457 16.387 8.6797 12.348 20.281 22.352 33.766 29.125 8.3398 4.5156 17.117 8.1836 26.191 10.938v44.234c-74.777 12.785-131.09-24.816-149.27-39.117 11.172-27.305 15.711-56.871 13.242-86.27-2.4688-29.398-11.879-57.789-27.449-82.848-15.172-25.133-21.973-54.434-19.418-83.684 6.0625-73.641 69.332-126.92 150.74-126.92h1.8008c71.984 0 112.09 29.883 122.04 91.258 0.84375 5.4922 1.3672 11.027 1.5625 16.578 1.4453 29.684 18.59 56.352 44.992 69.992 1.918 0.87109 3.6797 2.0547 5.207 3.5078 1.168 1.8945 0.97656 4.3242-0.47266 6.0117z"/>
 </g>
</svg>
